<?xml version="1.0" encoding="utf-8"?>
<!-- Generator: Adobe Illustrator 24.0.3, SVG Export Plug-In . SVG Version: 6.00 Build 0)  -->
<svg version="1.1" id="Layer_1" xmlns="http://www.w3.org/2000/svg" xmlns:xlink="http://www.w3.org/1999/xlink" x="0px" y="0px"
	 viewBox="0 0 155.2 64.9" style="enable-background:new 0 0 155.2 64.9;" xml:space="preserve">
<style type="text/css">
	.st0{fill:#FFFFFF;}
</style>
<g>
	<g>
		<polygon class="st0" points="84.5,16.3 76.3,8.1 68.2,0 60.1,8.1 51.9,0 43.8,8.1 35.7,0 19.4,0 27.5,8.1 35.7,16.3 43.8,24.4 
			51.9,16.3 60.1,24.4 68.2,16.3 76.3,24.4 92.6,24.4 		"/>
		<g>
			<g>
				<path class="st0" d="M39.7,29.4v35.1h-8.5V42.6l-7.6,21.9h-7.4l-7.6-22v22H0V29.4h10.4L20,53.9l9.3-24.4H39.7z"/>
				<path class="st0" d="M71.8,52.1H52.5c0.1,2.1,0.6,3.6,1.6,4.5c1,0.9,2.2,1.4,3.7,1.4c1.3,0,2.3-0.3,3.1-0.9
					c0.8-0.6,1.4-1.4,1.6-2.4h9c-0.4,2-1.2,3.7-2.4,5.3c-1.2,1.5-2.8,2.8-4.7,3.6c-1.9,0.9-4,1.3-6.3,1.3c-2.7,0-5.2-0.6-7.3-1.7
					c-2.1-1.1-3.8-2.8-5-5c-1.2-2.2-1.8-4.7-1.8-7.6c0-2.9,0.6-5.5,1.8-7.6c1.2-2.1,2.8-3.8,5-4.9c2.1-1.1,4.6-1.7,7.3-1.7
					c2.8,0,5.2,0.6,7.3,1.7c2.1,1.1,3.7,2.7,4.9,4.8c1.1,2,1.7,4.4,1.7,7.1C72.1,50.5,72,51.3,71.8,52.1z M62,44.4
					c-1-0.9-2.3-1.4-3.8-1.4c-1.6,0-2.9,0.5-3.9,1.4c-1,0.9-1.6,2.3-1.7,4.1h10.9C63.5,46.7,63,45.3,62,44.4z"/>
				<path class="st0" d="M89.2,37.8c1.7-1,3.5-1.5,5.5-1.5v9.1h-2.4c-2.3,0-4,0.5-5.3,1.4c-1.2,1-1.9,2.6-1.9,4.9v12.7h-8.5V36.6
					h8.5v5.2C86.1,40.2,87.5,38.8,89.2,37.8z"/>
				<path class="st0" d="M106.8,27.5v37h-8.5v-37H106.8z"/>
				<path class="st0" d="M113.3,25.6c0.9-0.8,2.2-1.3,3.7-1.3c1.5,0,2.8,0.4,3.7,1.3c0.9,0.8,1.4,1.9,1.4,3.2c0,1.3-0.5,2.3-1.4,3.2
					c-0.9,0.8-2.2,1.3-3.7,1.3c-1.5,0-2.8-0.4-3.7-1.3c-0.9-0.8-1.4-1.9-1.4-3.2C111.9,27.5,112.4,26.4,113.3,25.6z M121.2,36.6
					v27.9h-8.5V36.6H121.2z"/>
				<path class="st0" d="M152.4,39.5c1.9,2.1,2.8,5.1,2.8,8.8v16.2h-8.5V49.3c0-1.9-0.5-3.3-1.5-4.4s-2.3-1.6-3.9-1.6
					c-1.7,0-3.1,0.5-4.1,1.6c-1,1.1-1.5,2.7-1.5,4.7v14.8h-8.5V36.6h8.5v5.1c0.8-1.7,2-3,3.6-3.9c1.6-1,3.4-1.4,5.6-1.4
					C148,36.3,150.5,37.4,152.4,39.5z"/>
			</g>
		</g>
	</g>
</g>
</svg>
