<svg xmlns="http://www.w3.org/2000/svg" viewBox="0 0 155.2 64.9"><path fill="#ffba31" d="M84.5 16.3l-8.2-8.2L68.2 0l-8.1 8.1L51.9 0l-8.1 8.1L35.7 0H19.4l8.1 8.1 8.2 8.2 8.1 8.1 8.1-8.1 8.2 8.1 8.1-8.1 8.1 8.1h16.3z"/><path d="M39.7 29.4v35.1h-8.5V42.6l-7.6 21.9h-7.4l-7.6-22v22H0V29.4h10.4L20 53.9l9.3-24.4h10.4zm32.1 22.7H52.5c.1 2.1.6 3.6 1.6 4.5 1 .9 2.2 1.4 3.7 1.4 1.3 0 2.3-.3 3.1-.9.8-.6 1.4-1.4 1.6-2.4h9c-.4 2-1.2 3.7-2.4 5.3-1.2 1.5-2.8 2.8-4.7 3.6-1.9.9-4 1.3-6.3 1.3-2.7 0-5.2-.6-7.3-1.7-2.1-1.1-3.8-2.8-5-5-1.2-2.2-1.8-4.7-1.8-7.6 0-2.9.6-5.5 1.8-7.6 1.2-2.1 2.8-3.8 5-4.9 2.1-1.1 4.6-1.7 7.3-1.7 2.8 0 5.2.6 7.3 1.7 2.1 1.1 3.7 2.7 4.9 4.8 1.1 2 1.7 4.4 1.7 7.1.1.5 0 1.3-.2 2.1zM62 44.4c-1-.9-2.3-1.4-3.8-1.4-1.6 0-2.9.5-3.9 1.4-1 .9-1.6 2.3-1.7 4.1h10.9c0-1.8-.5-3.2-1.5-4.1zm27.2-6.6c1.7-1 3.5-1.5 5.5-1.5v9.1h-2.4c-2.3 0-4 .5-5.3 1.4-1.2 1-1.9 2.6-1.9 4.9v12.7h-8.5V36.6h8.5v5.2c1-1.6 2.4-3 4.1-4zm17.6-10.3v37h-8.5v-37h8.5zm6.5-1.9c.9-.8 2.2-1.3 3.7-1.3s2.8.4 3.7 1.3c.9.8 1.4 1.9 1.4 3.2 0 1.3-.5 2.3-1.4 3.2-.9.8-2.2 1.3-3.7 1.3s-2.8-.4-3.7-1.3c-.9-.8-1.4-1.9-1.4-3.2 0-1.3.5-2.4 1.4-3.2zm7.9 11v27.9h-8.5V36.6h8.5zm31.2 2.9c1.9 2.1 2.8 5.1 2.8 8.8v16.2h-8.5V49.3c0-1.9-.5-3.3-1.5-4.4s-2.3-1.6-3.9-1.6c-1.7 0-3.1.5-4.1 1.6-1 1.1-1.5 2.7-1.5 4.7v14.8h-8.5V36.6h8.5v5.1c.8-1.7 2-3 3.6-3.9 1.6-1 3.4-1.4 5.6-1.4 3.1-.1 5.6 1 7.5 3.1z" fill="#0a2a51"/></svg>